<svg width="880" height="660" viewBox="0 0 880 660" fill="none" xmlns="http://www.w3.org/2000/svg">
<g clip-path="url(#clip0_4301_240)">
<rect width="880" height="660" fill="url(#paint0_linear_4301_240)"/>
<path d="M476.764 -138.72C370.415 -139.418 268.213 -79.6324 192.581 27.5206C116.95 134.674 74.0658 280.444 73.3333 432.854C73.3333 586.193 115.837 733.252 191.495 841.679C267.153 950.105 369.768 1011.02 476.764 1011.02C583.761 1011.02 686.374 950.105 762.032 841.679C837.69 733.252 880.195 586.193 880.195 432.854C879.462 280.444 836.576 134.674 760.945 27.5206C685.314 -79.6324 583.114 -139.418 476.764 -138.72ZM476.764 734.733C435.201 734.057 394.706 715.775 360.377 682.189C326.048 648.604 299.419 601.215 283.841 545.988C268.263 490.762 264.432 430.165 272.831 371.825C281.23 313.486 301.485 260.011 331.044 218.131C360.603 176.251 398.144 147.838 438.946 136.468C479.747 125.098 521.984 131.279 560.339 154.234C598.695 177.189 631.455 215.891 654.496 265.469C677.538 315.047 689.832 373.286 689.829 432.854C689.671 472.725 684.033 512.161 673.24 548.911C662.446 585.66 646.708 619.003 626.923 647.035C607.138 675.067 583.694 697.24 557.93 712.287C532.165 727.335 504.585 734.962 476.764 734.733Z" fill="url(#paint1_linear_4301_240)"/>
<path fill-rule="evenodd" clip-rule="evenodd" d="M422.992 306.479C424.283 305.152 425.298 303.58 425.976 301.857C426.654 300.133 426.983 298.292 426.942 296.44C426.902 294.588 426.493 292.763 425.741 291.071C424.988 289.379 423.906 287.853 422.557 286.583C414.028 278.498 403.327 273.074 391.764 270.973C380.201 268.873 368.276 270.188 357.448 274.757C346.62 279.327 337.359 286.952 330.796 296.702C324.233 306.451 320.654 317.902 320.496 329.653C320.654 341.405 324.233 352.855 330.796 362.605C337.359 372.354 346.62 379.98 357.448 384.549C368.276 389.118 380.201 390.433 391.764 388.333C403.327 386.233 414.028 380.808 422.557 372.723C423.906 371.453 424.988 369.928 425.741 368.236C426.493 366.543 426.902 364.718 426.942 362.866C426.983 361.015 426.654 359.173 425.976 357.45C425.298 355.726 424.283 354.155 422.992 352.827C420.365 350.133 416.784 348.579 413.022 348.499C409.26 348.419 405.617 349.821 402.879 352.401C396.803 358.134 388.733 361.276 380.38 361.159C372.028 361.043 364.048 357.678 358.135 351.778C355.225 348.875 352.917 345.426 351.341 341.63C349.766 337.833 348.956 333.764 348.956 329.653C348.956 325.543 349.766 321.473 351.341 317.677C352.917 313.88 355.225 310.432 358.135 307.529C364.048 301.629 372.028 298.264 380.38 298.147C388.733 298.031 396.803 301.172 402.879 306.905C405.617 309.486 409.261 310.888 413.023 310.807C416.785 310.727 420.366 309.171 422.992 306.475V306.479ZM189.181 289.649C201.978 276.995 219.271 269.932 237.268 270.008C255.264 269.932 272.557 276.995 285.354 289.649C298.151 302.302 305.409 319.514 305.535 337.511C305.536 346.393 303.761 355.185 300.316 363.372C296.871 371.558 291.825 378.974 285.475 385.183C282.791 387.819 279.18 389.297 275.418 389.297C271.656 389.297 268.045 387.819 265.362 385.183C264.041 383.884 262.993 382.334 262.277 380.626C261.561 378.917 261.192 377.083 261.192 375.231C261.192 373.378 261.561 371.545 262.277 369.836C262.993 368.127 264.041 366.578 265.362 365.279C269.054 361.648 271.987 357.318 273.989 352.541C275.991 347.765 277.022 342.638 277.022 337.459C277.022 332.28 275.991 327.153 273.989 322.376C271.987 317.6 269.054 313.27 265.362 309.638C257.856 302.255 247.75 298.117 237.221 298.117C226.693 298.117 216.587 302.255 209.081 309.638C205.389 313.27 202.456 317.6 200.454 322.376C198.452 327.153 197.421 332.28 197.421 337.459C197.421 342.638 198.452 347.765 200.454 352.541C202.456 357.318 205.389 361.648 209.081 365.279C210.402 366.578 211.45 368.127 212.166 369.836C212.882 371.545 213.25 373.378 213.25 375.231C213.25 377.083 212.882 378.917 212.166 380.626C211.45 382.334 210.402 383.884 209.081 385.183C206.398 387.819 202.787 389.297 199.025 389.297C195.263 389.297 191.652 387.819 188.968 385.183C182.634 378.966 177.605 371.547 174.176 363.361C170.747 355.175 168.988 346.386 169 337.511C169.127 319.514 176.384 302.302 189.181 289.649ZM498.899 270.01C482.992 269.937 467.707 276.176 456.395 287.359C445.083 298.542 438.669 313.755 438.559 329.661C438.559 345.664 444.917 361.011 456.232 372.327C467.548 383.643 482.896 390 498.899 390C514.901 390 530.249 383.643 541.565 372.327C552.88 361.011 559.238 345.664 559.238 329.661C559.128 313.755 552.714 298.542 541.402 287.359C530.09 276.176 514.805 269.937 498.899 270.01ZM498.899 361.166C492.682 361.095 486.626 359.187 481.491 355.682C476.357 352.177 472.374 347.232 470.044 341.468C467.714 335.704 467.141 329.38 468.397 323.292C469.654 317.203 472.683 311.622 477.104 307.252C481.525 302.881 487.14 299.916 493.242 298.729C499.345 297.542 505.662 298.188 511.398 300.583C517.135 302.979 522.035 307.018 525.481 312.192C528.927 317.366 530.766 323.444 530.766 329.661C530.742 333.822 529.899 337.938 528.284 341.773C526.67 345.608 524.316 349.088 521.357 352.013C518.398 354.939 514.892 357.253 511.038 358.823C507.185 360.394 503.06 361.19 498.899 361.166ZM641.862 270.01C623.866 269.935 606.574 276.998 593.778 289.652C580.981 302.306 573.725 319.517 573.598 337.513C573.585 346.39 575.345 355.18 578.775 363.368C582.204 371.555 587.235 378.975 593.57 385.193C596.254 387.829 599.865 389.307 603.627 389.307C607.389 389.307 611 387.829 613.683 385.193C615.004 383.894 616.052 382.345 616.768 380.636C617.484 378.927 617.852 377.093 617.852 375.241C617.852 373.389 617.484 371.555 616.768 369.846C616.052 368.137 615.004 366.588 613.683 365.289C609.991 361.658 607.059 357.328 605.058 352.552C603.056 347.776 602.026 342.649 602.026 337.471C602.026 332.292 603.056 327.166 605.058 322.39C607.059 317.614 609.991 313.284 613.683 309.652C621.188 302.269 631.294 298.131 641.821 298.131C652.349 298.131 662.455 302.269 669.96 309.652C673.651 313.284 676.584 317.614 678.585 322.39C680.587 327.166 681.617 332.292 681.617 337.471C681.617 342.649 680.587 347.776 678.585 352.552C676.584 357.328 673.651 361.658 669.96 365.289C668.639 366.588 667.591 368.137 666.875 369.845C666.159 371.553 665.791 373.387 665.791 375.239C665.791 377.091 666.159 378.925 666.875 380.633C667.591 382.341 668.639 383.89 669.96 385.189C672.643 387.825 676.254 389.303 680.016 389.303C683.778 389.303 687.389 387.825 690.073 385.189C696.424 378.979 701.47 371.563 704.915 363.376C708.36 355.189 710.134 346.395 710.133 337.513C710.007 319.516 702.749 302.303 689.951 289.649C677.153 276.995 659.859 269.932 641.862 270.01ZM395.052 329.58C395.095 337.347 388.761 343.678 380.906 343.722C373.05 343.765 366.647 337.504 366.604 329.738C366.561 321.971 372.895 315.64 380.75 315.596C388.606 315.553 395.009 321.814 395.052 329.58Z" fill="white"/>
</g>
<defs>
<linearGradient id="paint0_linear_4301_240" x1="8.86107" y1="201.22" x2="894.972" y2="420.694" gradientUnits="userSpaceOnUse">
<stop stop-color="#00A5F0"/>
<stop offset="1" stop-color="#00D7D7"/>
</linearGradient>
<linearGradient id="paint1_linear_4301_240" x1="51.931" y1="-97.8677" x2="1018.22" y2="389.851" gradientUnits="userSpaceOnUse">
<stop stop-color="#00A5F0"/>
<stop offset="1" stop-color="#00D7D7" stop-opacity="0"/>
</linearGradient>
<clipPath id="clip0_4301_240">
<rect width="880" height="660" fill="white"/>
</clipPath>
</defs>
</svg>
